<svg width="38" height="46" viewBox="0 0 38 46" fill="none" xmlns="http://www.w3.org/2000/svg">
<path fill-rule="evenodd" clip-rule="evenodd" d="M28.5415 0C28.8335 2.66054 27.7655 5.33448 26.1785 7.25528C24.5915 9.1773 21.9875 10.6701 19.4375 10.4728C19.0905 7.86496 20.3775 5.14396 21.8485 3.44394C23.4885 1.52419 26.2545 0.0919304 28.5415 0ZM37.9855 33.3314C37.7105 33.22 31.9595 30.8907 31.8965 24.1411C31.8465 18.5111 36.3975 15.7442 36.7885 15.5067C36.7965 15.5017 36.8035 15.4978 36.8075 15.495C34.1375 11.5861 29.9785 11.0493 28.4965 10.9876C26.3315 10.7682 24.2315 11.5967 22.5165 12.2732C21.4275 12.7027 20.4945 13.0709 19.7975 13.0709C19.0205 13.0709 18.0605 12.6902 16.9835 12.263C15.5735 11.7036 13.9625 11.0646 12.2985 11.0963C8.43955 11.1524 4.88455 13.3389 2.89555 16.7916C-1.10845 23.7444 1.87355 34.0446 5.77555 39.6862C7.68555 42.4442 9.96155 45.5507 12.9505 45.4376C14.2875 45.385 15.2385 44.9801 16.2215 44.5613C17.3555 44.0784 18.5325 43.5772 20.3955 43.5772C22.1745 43.5772 23.2995 44.064 24.3815 44.5321C25.4145 44.979 26.4085 45.4089 27.8945 45.3815C30.9915 45.3244 32.9565 42.5664 34.8505 39.7983C36.9715 36.6993 37.8855 33.6959 37.9875 33.3599C37.9915 33.3487 37.9935 33.3405 37.9955 33.3353C37.9945 33.3348 37.9915 33.3335 37.9855 33.3314Z" fill="white"/>
</svg>
