<svg width="112" height="38" viewBox="0 0 112 38" fill="none" xmlns="http://www.w3.org/2000/svg">
<path fill-rule="evenodd" clip-rule="evenodd" d="M39.1284 28.9375C44.1754 28.9375 48.2879 25.0149 48.2879 19.6917C48.2879 14.3309 44.1754 10.4459 39.1284 10.4459C34.0815 10.4459 29.969 14.3309 29.969 19.6917C29.969 25.0149 34.0815 28.9375 39.1284 28.9375ZM39.1284 14.0892C41.8948 14.0892 44.2783 16.3652 44.2783 19.6917C44.2783 22.9807 41.8948 25.2942 39.1284 25.2942C36.3621 25.2942 33.9786 22.9848 33.9786 19.6917C33.9786 16.3652 36.3621 14.0892 39.1284 14.0892Z" fill="white"/>
<path fill-rule="evenodd" clip-rule="evenodd" d="M58.888 28.9375C63.9349 28.9375 68.0474 25.0149 68.0474 19.6917C68.0474 14.3309 63.9349 10.4459 58.888 10.4459C53.841 10.4459 49.7286 14.3351 49.7286 19.6917C49.7286 25.0149 53.841 28.9375 58.888 28.9375ZM58.888 14.0892C61.6543 14.0892 64.0379 16.3652 64.0379 19.6917C64.0379 22.9807 61.6543 25.2942 58.888 25.2942C56.1216 25.2942 53.7381 22.9848 53.7381 19.6917C53.7381 16.3652 56.1216 14.0892 58.888 14.0892Z" fill="white"/>
<path fill-rule="evenodd" clip-rule="evenodd" d="M86.9839 27.6036V11.0086H83.176V12.5134H83.0361C82.1345 11.4255 80.4056 10.4459 78.2279 10.4459C73.6626 10.4459 69.4801 14.506 69.4801 19.725C69.4801 24.9065 73.6626 28.9333 78.2279 28.9333C80.4097 28.9333 82.1386 27.9537 83.0361 26.8324H83.176V28.1622C83.176 31.7013 81.3112 33.5813 78.302 33.5813C75.8485 33.5813 74.3253 31.8055 73.7037 30.3006L70.2128 31.7721C71.2173 34.2232 73.8807 37.2204 78.3061 37.2204C83.0072 37.2204 86.9839 34.4317 86.9839 27.6036ZM78.586 14.0892C81.3153 14.0892 83.4601 16.4694 83.4601 19.725C83.4601 22.9473 81.3153 25.2942 78.586 25.2942C75.8197 25.2942 73.502 22.9473 73.502 19.725C73.502 16.4694 75.8197 14.0892 78.586 14.0892Z" fill="white"/>
<path d="M93.2616 1.27496V28.3705H89.3508V1.27496H93.2616Z" fill="white"/>
<path fill-rule="evenodd" clip-rule="evenodd" d="M111.613 24.8355L108.501 22.7345C107.464 24.2769 106.047 25.294 104.006 25.294C101.968 25.294 100.515 24.3478 99.5806 22.4928L111.786 17.3738L111.37 16.3233C110.613 14.2599 108.295 10.4415 103.557 10.4415C98.8519 10.4415 94.9453 14.189 94.9453 19.6873C94.9453 24.873 98.819 28.9332 104.006 28.9332C108.188 28.9332 110.609 26.3403 111.613 24.8355ZM107.081 15.9773L98.9219 19.408C98.819 15.8398 101.655 14.0181 103.693 14.0181C105.282 14.0181 106.632 14.8226 107.081 15.9773Z" fill="white"/>
<path d="M15.1657 17.2863V13.3637H28.2194C28.347 14.0473 28.4129 14.856 28.4129 15.7314C28.4129 18.6744 27.6184 22.3136 25.0579 24.9064C22.5673 27.5326 19.3852 28.9332 15.1698 28.9332C7.35647 28.9332 0.786377 22.4887 0.786377 14.5768C0.786377 6.66488 7.35647 0.220276 15.1698 0.220276C19.4922 0.220276 22.5714 1.93768 24.885 4.17618L22.1516 6.94418C20.4926 5.36838 18.2449 4.14288 15.1657 4.14288C9.46006 4.14288 4.99766 8.79918 4.99766 14.5768C4.99766 20.3544 9.46006 25.0106 15.1657 25.0106C18.8665 25.0106 20.9742 23.5058 22.3244 22.1385C23.4195 21.0297 24.1399 19.4456 24.4239 17.2821L15.1657 17.2863Z" fill="white"/>
</svg>
