<svg width="107" height="33" viewBox="0 0 107 33" fill="none" xmlns="http://www.w3.org/2000/svg">
<path fill-rule="evenodd" clip-rule="evenodd" d="M66.4685 25.4848C60.3155 30.0206 51.3985 32.4406 43.7205 32.4406C32.9545 32.4406 23.2625 28.4579 15.9305 21.834C15.3545 21.3131 15.8705 20.6032 16.5615 21.0089C24.4745 25.6138 34.2585 28.3842 44.3655 28.3842C51.1815 28.3842 58.6795 26.9736 65.5745 24.0466C66.6155 23.6041 67.4865 24.7288 66.4685 25.4848Z" fill="white"/>
<path fill-rule="evenodd" clip-rule="evenodd" d="M69.0264 22.558C68.2424 21.5531 63.8274 22.0832 61.8454 22.3183C61.2424 22.3921 61.1494 21.8666 61.6934 21.4886C65.2104 19.0133 70.9804 19.7278 71.6524 20.5575C72.3254 21.3918 71.4774 27.1768 68.1734 29.9379C67.6664 30.362 67.1824 30.1361 67.4084 29.5738C68.1504 27.7207 69.8144 23.5675 69.0264 22.558Z" fill="white"/>
<path fill-rule="evenodd" clip-rule="evenodd" d="M61.9843 4.01385V1.60765C61.9843 1.24345 62.2603 0.999146 62.5923 0.999146H73.3623C73.7083 0.999146 73.9843 1.24805 73.9843 1.60765V3.66805C73.9803 4.01385 73.6893 4.46555 73.1733 5.18005L67.5923 13.1499C69.6663 13.0992 71.8553 13.408 73.7363 14.4682C74.1603 14.7079 74.2753 15.0582 74.3073 15.404V17.9715C74.3073 18.3218 73.9203 18.7321 73.5143 18.52C70.2013 16.7822 65.8003 16.5932 62.1363 18.5385C61.7623 18.7413 61.3713 18.3356 61.3713 17.9853V15.5469C61.3713 15.155 61.3753 14.4867 61.7673 13.892L68.2333 4.61765H62.6063C62.2603 4.61765 61.9843 4.37335 61.9843 4.01385Z" fill="white"/>
<path fill-rule="evenodd" clip-rule="evenodd" d="M22.6954 19.0274H19.4194C19.1054 19.0043 18.8564 18.7692 18.8334 18.4696V1.64935C18.8334 1.31285 19.1144 1.04545 19.4654 1.04545H22.5204C22.8384 1.05925 23.0924 1.30355 23.1154 1.60785V3.80655H23.1754C23.9724 1.68155 25.4704 0.690552 27.4884 0.690552C29.5394 0.690552 30.8204 1.68155 31.7424 3.80655C32.5354 1.68155 34.3374 0.690552 36.2684 0.690552C37.6414 0.690552 39.1434 1.25745 40.0614 2.52975C41.0974 3.94485 40.8854 6.00075 40.8854 7.80305L40.8814 18.4189C40.8814 18.7554 40.6004 19.0274 40.2494 19.0274H36.9774C36.6504 19.0043 36.3874 18.7416 36.3874 18.4189V9.50395C36.3874 8.79415 36.4524 7.02405 36.2954 6.35105C36.0514 5.22175 35.3184 4.90365 34.3694 4.90365C33.5764 4.90365 32.7474 5.43375 32.4104 6.28195C32.0744 7.13005 32.1064 8.54985 32.1064 9.50395V18.4189C32.1064 18.7554 31.8254 19.0274 31.4754 19.0274H28.2034C27.8714 19.0043 27.6134 18.7416 27.6134 18.4189L27.6084 9.50395C27.6084 7.62785 27.9174 4.86675 25.5904 4.86675C23.2354 4.86675 23.3274 7.55875 23.3274 9.50395V18.4189C23.3274 18.7554 23.0464 19.0274 22.6954 19.0274Z" fill="white"/>
<path fill-rule="evenodd" clip-rule="evenodd" d="M83.2573 0.690552C88.1193 0.690552 90.7503 4.86675 90.7503 10.177C90.7503 15.3075 87.8423 19.3777 83.2573 19.3777C78.4823 19.3777 75.8833 15.2014 75.8833 9.99725C75.8833 4.76075 78.5153 0.690552 83.2573 0.690552ZM83.2853 4.12455C80.8703 4.12455 80.7183 7.41585 80.7183 9.46705C80.7183 11.523 80.6853 15.9113 83.2573 15.9113C85.7963 15.9113 85.9163 12.3711 85.9163 10.2139C85.9163 8.79405 85.8563 7.09775 85.4283 5.75175C85.0593 4.58095 84.3263 4.12455 83.2853 4.12455Z" fill="white"/>
<path fill-rule="evenodd" clip-rule="evenodd" d="M97.0554 19.0274H93.7924C93.4654 19.0043 93.2024 18.7416 93.2024 18.4189L93.1984 1.59395C93.2254 1.28515 93.4974 1.04545 93.8294 1.04545H96.8664C97.1524 1.05925 97.3874 1.25285 97.4514 1.51565V4.08775H97.5114C98.4284 1.78755 99.7144 0.690552 101.977 0.690552C103.447 0.690552 104.88 1.22065 105.802 2.67265C106.659 4.01865 106.659 6.28195 106.659 7.90905V18.4973C106.622 18.7923 106.351 19.0274 106.028 19.0274H102.742C102.442 19.0043 102.194 18.7831 102.161 18.4973V9.36105C102.161 7.52185 102.373 4.82985 100.111 4.82985C99.3134 4.82985 98.5804 5.36465 98.2164 6.17585C97.7564 7.20385 97.6964 8.22715 97.6964 9.36105V18.4189C97.6914 18.7554 97.4054 19.0274 97.0554 19.0274" fill="white"/>
<path fill-rule="evenodd" clip-rule="evenodd" d="M53.3984 10.9927C53.3984 12.2695 53.4304 13.3343 52.7854 14.4683C52.2644 15.3902 51.4354 15.9572 50.5174 15.9572C49.2594 15.9572 48.5224 14.9984 48.5224 13.5832C48.5224 10.7898 51.0244 10.2828 53.3984 10.2828V10.9927ZM56.7024 18.9809C56.4864 19.1745 56.1724 19.1884 55.9284 19.0593C54.8404 18.1558 54.6424 17.7364 54.0484 16.8744C52.2504 18.709 50.9744 19.2575 48.6464 19.2575C45.8864 19.2575 43.7434 17.5566 43.7434 14.1501C43.7434 11.4904 45.1814 9.67893 47.2364 8.79383C49.0154 8.01023 51.4994 7.87193 53.3984 7.65533V7.23123C53.3984 6.45223 53.4584 5.53033 52.9974 4.85733C52.6004 4.25343 51.8354 4.00453 51.1584 4.00453C49.9094 4.00453 48.7984 4.64523 48.5264 5.97283C48.4714 6.26783 48.2554 6.55823 47.9554 6.57203L44.7804 6.23093C44.5124 6.17103 44.2134 5.95433 44.2914 5.54413C45.0194 1.69053 48.5034 0.528931 51.6194 0.528931C53.2134 0.528931 55.2964 0.953031 56.5554 2.16073C58.1494 3.64963 57.9974 5.63633 57.9974 7.79823V12.9055C57.9974 14.4405 58.6334 15.1135 59.2324 15.9432C59.4404 16.2383 59.4864 16.5932 59.2184 16.8144C58.5504 17.3722 57.3614 18.4094 56.7074 18.9902L56.7024 18.9809V18.9809Z" fill="white"/>
<path fill-rule="evenodd" clip-rule="evenodd" d="M10.4414 10.9927C10.4414 12.2695 10.4734 13.3343 9.82838 14.4683C9.30738 15.3902 8.48238 15.9572 7.56138 15.9572C6.30338 15.9572 5.57038 14.9984 5.57038 13.5832C5.57038 10.7898 8.07238 10.2828 10.4414 10.2828V10.9927ZM13.7454 18.9809C13.5294 19.1745 13.2154 19.1884 12.9714 19.0593C11.8844 18.1558 11.6904 17.7364 11.0914 16.8744C9.29338 18.709 8.02238 19.2575 5.69038 19.2575C2.93438 19.2575 0.786377 17.5566 0.786377 14.1501C0.786377 11.4904 2.22838 9.67893 4.27938 8.79383C6.05838 8.01023 8.54238 7.87193 10.4414 7.65533V7.23123C10.4414 6.45223 10.5014 5.53033 10.0454 4.85733C9.64438 4.25343 8.87938 4.00453 8.20638 4.00453C6.95738 4.00453 5.84238 4.64523 5.57038 5.97283C5.51438 6.26783 5.29838 6.55823 5.00338 6.57203L1.82338 6.23093C1.55638 6.17103 1.26138 5.95433 1.33438 5.54413C2.06738 1.69053 5.54738 0.528931 8.66238 0.528931C10.2574 0.528931 12.3404 0.953031 13.5984 2.16073C15.1924 3.64963 15.0404 5.63633 15.0404 7.79823V12.9055C15.0404 14.4405 15.6764 15.1135 16.2764 15.9432C16.4874 16.2383 16.5344 16.5932 16.2664 16.8144C15.5984 17.3722 14.4094 18.4094 13.7554 18.9902L13.7454 18.9809V18.9809Z" fill="white"/>
</svg>
