<svg width="126" height="25" viewBox="0 0 126 25" fill="none" xmlns="http://www.w3.org/2000/svg">
<path fill-rule="evenodd" clip-rule="evenodd" d="M10.7585 4.42681C9.29048 4.42681 8.86448 5.08011 8.86448 6.51641V8.89981H12.7835L12.3915 12.7537H8.86448V24.4438H4.16248V12.7537H0.995483V8.89981H4.16248V6.58121C4.16248 2.69671 5.72948 0.639709 10.1055 0.639709C11.0525 0.639709 12.1625 0.704509 12.8485 0.802109V4.42681" fill="white"/>
<path fill-rule="evenodd" clip-rule="evenodd" d="M17.8115 17.2262C17.8115 19.5448 18.6615 21.0785 20.8485 21.0785C22.7755 21.0785 23.7555 19.6747 23.7555 17.4555V15.8875C23.7555 13.6663 22.7755 12.2625 20.8485 12.2625C18.6615 12.2625 17.8115 13.7982 17.8115 16.1165V17.2262ZM13.1095 16.1817C13.1095 11.8387 15.1665 8.57281 19.4775 8.57281C21.8285 8.57281 23.2645 9.78191 23.9505 11.2828V8.89951H28.4575V24.4418H23.9505V22.0927C23.2965 23.5939 21.8285 24.7684 19.4775 24.7684C15.1665 24.7684 13.1095 21.5046 13.1095 17.1615V16.1817Z" fill="white"/>
<path fill-rule="evenodd" clip-rule="evenodd" d="M38.2505 8.57281C40.0785 8.57281 41.8105 8.96431 42.7565 9.61781L41.7115 12.9484C40.9935 12.5893 39.8185 12.2304 38.5775 12.2304C36.0295 12.2304 34.9195 13.699 34.9195 16.2143V17.127C34.9195 19.6423 36.0295 21.1109 38.5775 21.1109C39.8185 21.1109 40.9935 20.752 41.7115 20.3928L42.7565 23.7238C41.8105 24.3767 40.0785 24.7684 38.2505 24.7684C32.7335 24.7684 30.2185 21.7966 30.2185 17.0296V16.3116C30.2185 11.5446 32.7335 8.57281 38.2505 8.57281Z" fill="white"/>
<path fill-rule="evenodd" clip-rule="evenodd" d="M48.0785 15.2345H53.7605V14.8431C53.7605 13.1452 53.0755 11.8065 51.0185 11.8065C48.8945 11.8065 48.0785 13.1452 48.0785 15.2345ZM43.3765 17.2589V15.8876C43.3765 11.4798 45.8905 8.57281 51.0185 8.57281C55.8505 8.57281 57.9715 11.5121 57.9715 15.8228V18.3035H48.0785C48.1765 20.4274 49.1235 21.3727 51.7365 21.3727C53.4995 21.3727 55.3615 21.0135 56.7325 20.4274L57.5805 23.6587C56.3415 24.3119 53.7935 24.8009 51.5395 24.8009C45.5975 24.8009 43.3765 21.8312 43.3765 17.2589Z" fill="white"/>
<path fill-rule="evenodd" clip-rule="evenodd" d="M70.7064 16.0822C70.7064 13.8936 69.8564 12.2625 67.6054 12.2625C65.6784 12.2625 64.6334 13.6338 64.6334 15.853V17.486C64.6334 19.7072 65.6784 21.0785 67.6054 21.0785C69.8564 21.0785 70.7064 19.4454 70.7064 17.2568V16.0822ZM75.4084 17.1596C75.4084 21.5027 73.3194 24.7685 69.0084 24.7685C66.6574 24.7685 65.0254 23.592 64.3714 22.0908V24.4419H59.9314V1.09398L64.6334 0.669983V11.0539C65.3194 9.68268 66.8204 8.57288 69.0084 8.57288C73.3194 8.57288 75.4084 11.8371 75.4084 16.1798V17.1596Z" fill="white"/>
<path fill-rule="evenodd" clip-rule="evenodd" d="M87.7505 15.9523C87.7505 13.8956 86.9005 12.2625 84.7135 12.2625C82.5245 12.2625 81.6765 13.8956 81.6765 15.9523V17.3887C81.6765 19.4454 82.5245 21.0785 84.7135 21.0785C86.9005 21.0785 87.7505 19.4454 87.7505 17.3887V15.9523ZM76.9745 17.0622V16.2791C76.9745 11.8061 79.5205 8.57281 84.7135 8.57281C89.9045 8.57281 92.4525 11.8061 92.4525 16.2791V17.0622C92.4525 21.5368 89.9045 24.7684 84.7135 24.7684C79.5205 24.7684 76.9745 21.5368 76.9745 17.0622Z" fill="white"/>
<path fill-rule="evenodd" clip-rule="evenodd" d="M104.794 15.9523C104.794 13.8956 103.944 12.2625 101.758 12.2625C99.5686 12.2625 98.7206 13.8956 98.7206 15.9523V17.3887C98.7206 19.4454 99.5686 21.0785 101.758 21.0785C103.944 21.0785 104.794 19.4454 104.794 17.3887V15.9523ZM94.0186 17.0622V16.2791C94.0186 11.8061 96.5646 8.57281 101.758 8.57281C106.949 8.57281 109.496 11.8061 109.496 16.2791V17.0622C109.496 21.5368 106.949 24.7684 101.758 24.7684C96.5646 24.7684 94.0186 21.5368 94.0186 17.0622Z" fill="white"/>
<path fill-rule="evenodd" clip-rule="evenodd" d="M115.958 16.3114L120.595 8.89928H125.591L120.725 16.5732L125.786 24.4416H120.792L115.958 16.8348V24.4416H111.256V1.09568L115.958 0.669983" fill="white"/>
</svg>
