<svg width="136" height="43" viewBox="0 0 136 43" fill="none" xmlns="http://www.w3.org/2000/svg">
<path fill-rule="evenodd" clip-rule="evenodd" d="M39.1674 30.0345C39.2377 30.2114 39.3081 30.3884 39.3784 30.5605C39.9264 32.1531 40.0954 33.6596 39.7584 35.1662C39.2944 38.3513 37.2274 41.1061 34.2754 42.3113C33.2214 42.7848 32.0404 43 30.8594 43C30.5224 43 30.1004 42.9569 29.7634 42.9139C28.3714 42.7417 26.9374 42.2683 25.5454 41.4504C23.8584 40.4604 22.1714 39.04 20.3164 36.974C18.4604 39.04 16.8154 40.4604 15.0864 41.4504C13.6954 42.2683 12.2614 42.7417 10.8694 42.9139C10.5324 42.9569 10.1104 43 9.77239 43C8.59239 43 7.45339 42.7848 6.35639 42.3113C3.44639 41.1061 1.33839 38.3944 0.874391 35.1662C0.663391 33.6166 0.832391 32.1101 1.38039 30.5175C1.59139 29.9579 1.80239 29.4414 2.01339 28.968C2.17157 28.6043 2.32976 28.2501 2.4837 27.9054C2.65772 27.5157 2.82633 27.1382 2.98339 26.7728L3.02539 26.6867C5.93539 20.2302 9.09839 13.6877 12.3454 7.23121L12.4714 6.97301C12.7948 6.35527 13.1172 5.69816 13.4405 5.03936L13.4844 4.94991C13.9054 4.17521 14.3694 3.35736 15.0024 2.58258C16.3944 0.94695 18.2914 0 20.4004 0C22.4674 0 24.4074 0.94695 25.7564 2.66867C26.3811 3.38568 26.7891 4.13952 27.1801 4.86205L27.2744 5.03601L27.3201 5.12924L27.3203 5.12958C27.6429 5.787 27.9647 6.44265 28.2864 7.05901L28.4134 7.31731C31.7024 13.7738 34.8234 20.3163 37.7334 26.7728L37.7754 26.8158C37.9326 27.1815 38.1013 27.5594 38.2755 27.9494C38.4293 28.2938 38.5874 28.6477 38.7454 29.011C38.8861 29.3267 39.0267 29.6806 39.1674 30.0345ZM71.9364 10.8038C71.9364 12.3533 70.7134 13.6016 69.1944 13.6016C67.6764 13.6016 66.4534 12.3533 66.4534 10.8038C66.4534 9.25421 67.6344 8.00601 69.1944 8.00601C70.7554 8.04901 71.9364 9.29731 71.9364 10.8038ZM60.6334 16.4424V17.1311C60.6334 17.1311 59.3264 15.4094 56.5434 15.4094C51.9464 15.4094 48.3614 18.982 48.3614 23.9319C48.3614 28.8388 51.9034 32.4544 56.5434 32.4544C59.3684 32.4544 60.6334 30.6897 60.6334 30.6897V31.4214C60.6334 31.7658 60.8864 32.024 61.2244 32.024H64.6404V15.8398H61.2244C60.8864 15.8398 60.6334 16.1411 60.6334 16.4424ZM57.2174 28.5806C58.7364 28.5806 60.0014 27.7628 60.6334 26.8158V21.048C60.0434 20.1441 58.6934 19.2833 57.2174 19.2833C54.5184 19.2833 52.4524 21.005 52.4524 23.9319C52.4524 26.8588 54.5184 28.5806 57.2174 28.5806ZM67.1704 15.8398H71.2194V32.024H67.1704V15.8398ZM123.556 17.1311C123.556 17.1311 124.863 15.4094 127.647 15.4094C132.201 15.4094 135.786 19.025 135.786 23.9319C135.786 28.8388 132.201 32.4544 127.604 32.4544C124.821 32.4544 123.514 30.6897 123.514 30.6897V31.4214C123.514 31.7227 123.261 32.024 122.923 32.024H119.507V8.04901H123.556V17.1311ZM126.972 28.5375C125.411 28.5375 124.188 27.7197 123.556 26.7728V21.005C124.188 20.1441 125.538 19.2402 126.972 19.2402C129.671 19.2402 131.737 20.962 131.737 23.8889C131.737 26.8158 129.671 28.5375 126.972 28.5375ZM117.398 32.0671V22.4254C117.398 19.7137 116.85 18.1642 115.416 16.9589C114.235 15.9259 112.759 15.4094 110.988 15.4094C109.428 15.4094 107.867 15.8829 106.686 17.1311V16.4424C106.686 16.1411 106.433 15.8398 106.096 15.8398H102.891V32.024H106.94V20.7467C107.741 19.7998 109.006 19.1541 110.229 19.1541C112.506 19.1541 113.35 20.2302 113.35 22.8989V32.0671H117.398ZM93.0654 15.4094C90.2814 15.4094 88.9744 17.1311 88.9744 17.1311V8.04901H84.9254V32.024H88.3414C88.6794 32.024 88.9324 31.7227 88.9324 31.4214V30.6897C88.9324 30.6897 90.2394 32.4544 93.0224 32.4544C97.6194 32.4544 101.204 28.8388 101.204 23.9319C101.246 19.025 97.6614 15.4094 93.0654 15.4094ZM88.9744 26.7728C89.6064 27.7197 90.8294 28.5375 92.3904 28.5375C95.0894 28.5375 97.1554 26.8158 97.1554 23.8889C97.1554 20.962 95.0894 19.2402 92.3904 19.2402C90.9564 19.2402 89.6064 20.1441 88.9744 21.005V26.7728ZM81.4254 15.4094C82.6484 15.4094 83.2804 15.6246 83.2804 15.6246V19.4554C83.2804 19.4554 79.9064 18.2933 77.7984 20.7467V32.0671H73.7494V15.8398H77.1654C77.5034 15.8398 77.7564 16.1411 77.7564 16.4424V17.1311C78.5154 16.2272 80.1604 15.4094 81.4254 15.4094ZM20.3584 32.7988C18.0814 29.8719 16.6044 27.1171 16.0984 24.7928C15.8884 23.8028 15.8454 22.9419 15.9724 22.1672C16.0564 21.4785 16.3094 20.8759 16.6474 20.3593C17.4484 19.1972 18.7974 18.4655 20.3584 18.4655C21.9184 18.4655 23.3104 19.1541 24.0694 20.3593C24.4074 20.8759 24.6604 21.4785 24.7444 22.1672C24.8704 22.9419 24.8284 23.8458 24.6174 24.7928C24.1114 27.0741 22.6354 29.8288 20.3584 32.7988ZM33.3474 39.8578C35.4144 38.997 36.8904 37.06 37.1854 34.8218C37.3544 33.7027 37.2274 32.6266 36.8904 31.5075C36.8029 31.211 36.6756 30.9145 36.5362 30.5899C36.4732 30.4432 36.4077 30.2908 36.3424 30.1301C36.1723 29.7836 36.0132 29.4153 35.854 29.0472C35.6969 28.6836 35.5398 28.3202 35.3724 27.978V27.9349C32.4624 21.5215 29.3414 14.979 26.1364 8.56561L26.0094 8.30731C25.8409 7.98446 25.6721 7.65089 25.5034 7.31732C25.3346 6.98374 25.1659 6.65016 24.9974 6.32731C24.6604 5.63861 24.2804 4.99301 23.8164 4.43341C22.9304 3.4004 21.7504 2.84084 20.4424 2.84084C19.1354 2.84084 17.9544 3.4004 17.0684 4.43341C16.6044 4.99301 16.2254 5.63861 15.8884 6.32731C15.7194 6.65017 15.5506 6.98375 15.3819 7.31734C15.2131 7.6509 15.0444 7.98447 14.8754 8.30731L14.7494 8.56561C11.5024 14.9359 8.38139 21.4785 5.47139 27.8919L5.42939 27.978C5.09139 28.7097 4.75439 29.4414 4.45939 30.1301C4.39482 30.2882 4.33026 30.4382 4.2681 30.5826C4.12712 30.9101 3.99853 31.2088 3.91039 31.5075C3.48939 32.7127 3.40439 33.7888 3.53139 34.8649C3.82639 37.1031 5.30239 39.04 7.36939 39.9009C8.33939 40.2883 9.43539 40.4604 10.5744 40.3313C11.6284 40.2022 12.6824 39.8578 13.7794 39.2122C15.2974 38.3513 16.8584 37.017 18.5874 35.037C15.8454 31.5505 14.1164 28.3223 13.4844 25.4815C13.1464 24.1902 13.1044 22.9419 13.2734 21.8228C13.4414 20.7467 13.8214 19.7567 14.4114 18.8959C15.7194 17.002 17.9124 15.8398 20.3584 15.8398C22.8044 15.8398 24.9974 16.9589 26.3044 18.8959C26.8954 19.7567 27.2744 20.7467 27.4434 21.8228C27.5704 22.9419 27.5274 24.1471 27.2324 25.4815C26.6004 28.3223 24.9134 31.5075 22.1294 34.994C23.9004 36.974 25.4194 38.3083 26.9374 39.1692C28.0334 39.8148 29.0884 40.1591 30.1424 40.2883C31.2394 40.4174 32.3354 40.2883 33.3474 39.8578Z" fill="white"/>
</svg>
