<svg xmlns="http://www.w3.org/2000/svg" data-slug-id="key-vault" viewBox="0 0 18 18"><defs><radialGradient id="key-vault_fb114c93-7c16-4540-899a-0796041629e6" cx="9" cy="9" r="8.5" gradientUnits="userSpaceOnUse"><stop offset=".18" stop-color="#5ea0ef"/><stop offset=".56" stop-color="#5c9fee"/><stop offset=".69" stop-color="#559ced"/><stop offset=".78" stop-color="#4a97e9"/><stop offset=".86" stop-color="#3990e4"/><stop offset=".93" stop-color="#2387de"/><stop offset=".99" stop-color="#087bd6"/><stop offset="1" stop-color="#0078d4"/></radialGradient><radialGradient id="key-vault_ec478bd3-5b38-4e7f-b661-11f355578bff" cx="38.95" cy="182.07" r="9.88" gradientTransform="translate(-28.71 -163.24) scale(0.94 0.94)" gradientUnits="userSpaceOnUse"><stop offset=".27" stop-color="#ffd70f"/><stop offset=".49" stop-color="#ffcb12"/><stop offset=".88" stop-color="#feac19"/><stop offset="1" stop-color="#fea11b"/></radialGradient></defs><path fill="url(#key-vault_fb114c93-7c16-4540-899a-0796041629e6)" d="M9,.5A8.5,8.5,0,1,0,17.5,9,8.51,8.51,0,0,0,9,.5ZM9,16.34A7.34,7.34,0,1,1,16.34,9,7.34,7.34,0,0,1,9,16.34Z"/><circle cx="9" cy="9" r="7.34" fill="#fff"/><path fill="url(#key-vault_ec478bd3-5b38-4e7f-b661-11f355578bff)" d="M13.44,7.33a1.84,1.84,0,0,0,0-2.59h0L10.29,1.58a1.83,1.83,0,0,0-2.58,0h0L4.56,4.74a1.84,1.84,0,0,0,0,2.59L7.18,10a.51.51,0,0,1,.15.36v4.88a.63.63,0,0,0,.18.44l1.2,1.2a.41.41,0,0,0,.58,0l1.16-1.16h0l.68-.68a.25.25,0,0,0,0-.34l-.49-.49a.27.27,0,0,1,0-.37l.49-.49a.25.25,0,0,0,0-.34l-.49-.49a.27.27,0,0,1,0-.37l.49-.49a.25.25,0,0,0,0-.34l-.68-.69v-.25ZM9,2.35A1,1,0,0,1,9,4.42,1,1,0,1,1,9,2.35Z"/><path fill="#ff9300" d="M8.18,15.3h0a.23.23,0,0,0,.38-.17v-4a.24.24,0,0,0-.11-.2h0a.22.22,0,0,0-.34.2v4A.28.28,0,0,0,8.18,15.3Z" opacity=".75"/><rect width="5.17" height=".61" x="6.48" y="5.79" fill="#ff9300" opacity=".75" rx=".28"/><rect width="5.17" height=".61" x="6.48" y="6.78" fill="#ff9300" opacity=".75" rx=".28"/></svg>